<mxfile host="Electron" agent="Mozilla/5.0 (Macintosh; Intel Mac OS X 10_15_7) AppleWebKit/537.36 (KHTML, like Gecko) draw.io/28.1.2 Chrome/138.0.7204.243 Electron/37.4.0 Safari/537.36" version="28.1.2">
  <diagram name="Page-1" id="kSEgV1QOKEyCUx7Vy883">
    <mxGraphModel dx="1018" dy="748" grid="1" gridSize="10" guides="1" tooltips="1" connect="1" arrows="1" fold="1" page="1" pageScale="1" pageWidth="850" pageHeight="1100" math="0" shadow="0">
      <root>
        <mxCell id="0" />
        <mxCell id="1" parent="0" />
        <mxCell id="59D-ydOoC6GLp1gEkWLs-74" style="edgeStyle=orthogonalEdgeStyle;rounded=0;orthogonalLoop=1;jettySize=auto;html=1;entryX=0.5;entryY=0;entryDx=0;entryDy=0;dashed=1;" parent="1" source="59D-ydOoC6GLp1gEkWLs-75" target="59D-ydOoC6GLp1gEkWLs-83" edge="1">
          <mxGeometry relative="1" as="geometry" />
        </mxCell>
        <mxCell id="59D-ydOoC6GLp1gEkWLs-75" value="«interface»&lt;br&gt;&lt;b&gt;NotificationController&lt;/b&gt;" style="html=1;whiteSpace=wrap;" parent="1" vertex="1">
          <mxGeometry x="320" y="340" width="160" height="50" as="geometry" />
        </mxCell>
        <mxCell id="59D-ydOoC6GLp1gEkWLs-76" style="edgeStyle=orthogonalEdgeStyle;rounded=0;orthogonalLoop=1;jettySize=auto;html=1;entryX=0.5;entryY=0;entryDx=0;entryDy=0;dashed=1;" parent="1" source="59D-ydOoC6GLp1gEkWLs-77" target="59D-ydOoC6GLp1gEkWLs-83" edge="1">
          <mxGeometry relative="1" as="geometry" />
        </mxCell>
        <mxCell id="59D-ydOoC6GLp1gEkWLs-77" value="«interface»&lt;br&gt;&lt;b&gt;KafkaConsumer&lt;/b&gt;" style="html=1;whiteSpace=wrap;" parent="1" vertex="1">
          <mxGeometry x="545" y="340" width="110" height="50" as="geometry" />
        </mxCell>
        <mxCell id="59D-ydOoC6GLp1gEkWLs-94" style="edgeStyle=orthogonalEdgeStyle;rounded=0;orthogonalLoop=1;jettySize=auto;html=1;entryX=1;entryY=0.25;entryDx=0;entryDy=0;dashed=1;" parent="1" source="59D-ydOoC6GLp1gEkWLs-78" target="59D-ydOoC6GLp1gEkWLs-92" edge="1">
          <mxGeometry relative="1" as="geometry" />
        </mxCell>
        <mxCell id="59D-ydOoC6GLp1gEkWLs-78" value="«interface»&lt;br&gt;&lt;b&gt;TemplateEngine&lt;/b&gt;" style="html=1;whiteSpace=wrap;" parent="1" vertex="1">
          <mxGeometry x="310" y="550" width="110" height="50" as="geometry" />
        </mxCell>
        <mxCell id="59D-ydOoC6GLp1gEkWLs-79" style="edgeStyle=orthogonalEdgeStyle;rounded=0;orthogonalLoop=1;jettySize=auto;html=1;dashed=1;" parent="1" source="59D-ydOoC6GLp1gEkWLs-80" target="59D-ydOoC6GLp1gEkWLs-84" edge="1">
          <mxGeometry relative="1" as="geometry" />
        </mxCell>
        <mxCell id="59D-ydOoC6GLp1gEkWLs-80" value="«interface»&lt;br&gt;&lt;b&gt;ChanelDispatcher&lt;/b&gt;" style="html=1;whiteSpace=wrap;" parent="1" vertex="1">
          <mxGeometry x="590" y="550" width="110" height="50" as="geometry" />
        </mxCell>
        <mxCell id="59D-ydOoC6GLp1gEkWLs-81" style="edgeStyle=orthogonalEdgeStyle;rounded=0;orthogonalLoop=1;jettySize=auto;html=1;entryX=0.5;entryY=0;entryDx=0;entryDy=0;dashed=1;" parent="1" source="59D-ydOoC6GLp1gEkWLs-83" target="59D-ydOoC6GLp1gEkWLs-78" edge="1">
          <mxGeometry relative="1" as="geometry" />
        </mxCell>
        <mxCell id="59D-ydOoC6GLp1gEkWLs-82" style="edgeStyle=orthogonalEdgeStyle;rounded=0;orthogonalLoop=1;jettySize=auto;html=1;dashed=1;" parent="1" source="59D-ydOoC6GLp1gEkWLs-83" target="59D-ydOoC6GLp1gEkWLs-80" edge="1">
          <mxGeometry relative="1" as="geometry" />
        </mxCell>
        <mxCell id="59D-ydOoC6GLp1gEkWLs-98" style="edgeStyle=orthogonalEdgeStyle;rounded=0;orthogonalLoop=1;jettySize=auto;html=1;entryX=0;entryY=0.5;entryDx=0;entryDy=0;dashed=1;" parent="1" source="59D-ydOoC6GLp1gEkWLs-83" target="59D-ydOoC6GLp1gEkWLs-96" edge="1">
          <mxGeometry relative="1" as="geometry" />
        </mxCell>
        <mxCell id="59D-ydOoC6GLp1gEkWLs-101" style="edgeStyle=orthogonalEdgeStyle;rounded=0;orthogonalLoop=1;jettySize=auto;html=1;dashed=1;" parent="1" source="59D-ydOoC6GLp1gEkWLs-83" target="59D-ydOoC6GLp1gEkWLs-99" edge="1">
          <mxGeometry relative="1" as="geometry" />
        </mxCell>
        <mxCell id="59D-ydOoC6GLp1gEkWLs-83" value="«interface»&lt;br&gt;&lt;b&gt;DeliveryService&lt;/b&gt;" style="html=1;whiteSpace=wrap;" parent="1" vertex="1">
          <mxGeometry x="450" y="470" width="110" height="50" as="geometry" />
        </mxCell>
        <mxCell id="59D-ydOoC6GLp1gEkWLs-84" value="«interface»&lt;br&gt;&lt;b&gt;ChanelAbstractFactory&lt;/b&gt;" style="html=1;whiteSpace=wrap;" parent="1" vertex="1">
          <mxGeometry x="780" y="620" width="140" height="50" as="geometry" />
        </mxCell>
        <mxCell id="59D-ydOoC6GLp1gEkWLs-85" style="edgeStyle=orthogonalEdgeStyle;rounded=0;orthogonalLoop=1;jettySize=auto;html=1;endArrow=block;endFill=0;entryX=0;entryY=0.5;entryDx=0;entryDy=0;" parent="1" source="59D-ydOoC6GLp1gEkWLs-86" target="59D-ydOoC6GLp1gEkWLs-84" edge="1">
          <mxGeometry relative="1" as="geometry">
            <mxPoint x="880" y="670" as="targetPoint" />
          </mxGeometry>
        </mxCell>
        <mxCell id="59D-ydOoC6GLp1gEkWLs-86" value="«interface»&lt;div&gt;SmsFactory&lt;/div&gt;" style="html=1;whiteSpace=wrap;" parent="1" vertex="1">
          <mxGeometry x="670" y="710" width="110" height="50" as="geometry" />
        </mxCell>
        <mxCell id="59D-ydOoC6GLp1gEkWLs-87" style="edgeStyle=orthogonalEdgeStyle;rounded=0;orthogonalLoop=1;jettySize=auto;html=1;entryX=0.5;entryY=1;entryDx=0;entryDy=0;endArrow=block;endFill=0;" parent="1" source="59D-ydOoC6GLp1gEkWLs-88" target="59D-ydOoC6GLp1gEkWLs-84" edge="1">
          <mxGeometry relative="1" as="geometry">
            <mxPoint x="880" y="680" as="targetPoint" />
          </mxGeometry>
        </mxCell>
        <mxCell id="59D-ydOoC6GLp1gEkWLs-88" value="«interface»&lt;div&gt;PushFactory&lt;/div&gt;" style="html=1;whiteSpace=wrap;" parent="1" vertex="1">
          <mxGeometry x="825" y="840" width="110" height="50" as="geometry" />
        </mxCell>
        <mxCell id="59D-ydOoC6GLp1gEkWLs-91" style="edgeStyle=orthogonalEdgeStyle;rounded=0;orthogonalLoop=1;jettySize=auto;html=1;entryX=1;entryY=0.5;entryDx=0;entryDy=0;endArrow=block;endFill=0;" parent="1" source="59D-ydOoC6GLp1gEkWLs-90" target="59D-ydOoC6GLp1gEkWLs-84" edge="1">
          <mxGeometry relative="1" as="geometry" />
        </mxCell>
        <mxCell id="59D-ydOoC6GLp1gEkWLs-90" value="«interface»&lt;div&gt;EmailFactory&lt;/div&gt;" style="html=1;whiteSpace=wrap;" parent="1" vertex="1">
          <mxGeometry x="1000" y="710" width="110" height="50" as="geometry" />
        </mxCell>
        <mxCell id="59D-ydOoC6GLp1gEkWLs-92" value="«interface»&lt;br&gt;&lt;b&gt;TemplateRepository&lt;/b&gt;" style="html=1;whiteSpace=wrap;" parent="1" vertex="1">
          <mxGeometry x="60" y="560" width="130" height="50" as="geometry" />
        </mxCell>
        <mxCell id="59D-ydOoC6GLp1gEkWLs-96" value="«interface»&lt;br&gt;&lt;b&gt;NotificationRepository&lt;/b&gt;" style="html=1;whiteSpace=wrap;" parent="1" vertex="1">
          <mxGeometry x="685" y="440" width="145" height="50" as="geometry" />
        </mxCell>
        <mxCell id="59D-ydOoC6GLp1gEkWLs-99" value="«interface»&lt;br&gt;&lt;b&gt;FailedMessagesProcessor&lt;/b&gt;" style="html=1;whiteSpace=wrap;" parent="1" vertex="1">
          <mxGeometry x="400" y="630" width="180" height="50" as="geometry" />
        </mxCell>
      </root>
    </mxGraphModel>
  </diagram>
</mxfile>
